<?xml version="1.0" encoding="utf-8"?>
<!-- Generator: Adobe Illustrator 19.0.0, SVG Export Plug-In . SVG Version: 6.00 Build 0)  -->
<svg version="1.1" id="Layer_1" xmlns="http://www.w3.org/2000/svg" xmlns:xlink="http://www.w3.org/1999/xlink" x="0px" y="0px"
	 viewBox="-467 269 24 24" style="enable-background:new -467 269 24 24;" xml:space="preserve">
<style type="text/css">
	.st0{fill:#D6D7D8;}
	.st1{fill:#C6C7C8;}
	.st2{fill:#A6A7A8;}
</style>
<g id="_477753208">
	<path id="_482192144" class="st0" d="M-459.7,289.7L-459.7,289.7c-0.3,0-0.6-0.3-0.6-0.6v-0.4c0-0.3,0.3-0.6,0.6-0.6l0,0
		c0.3,0,0.6,0.3,0.6,0.6v0.4C-459.1,289.4-459.4,289.7-459.7,289.7z"/>
	<path id="_482192048" class="st0" d="M-450,289.7L-450,289.7c-0.3,0-0.6-0.3-0.6-0.6v-0.4c0-0.3,0.3-0.6,0.6-0.6l0,0
		c0.3,0,0.6,0.3,0.6,0.6v0.4C-449.4,289.4-449.7,289.7-450,289.7z"/>
	<g>
		<path id="_482192096" class="st1" d="M-464.2,288l-1.5-0.6c-0.1-0.1-0.2-0.2-0.2-0.3v-0.4c0-0.2,0.2-0.3,0.3-0.3h1.7
			C-463.8,286.3-464.2,288-464.2,288z"/>
	</g>
	<g>
		<path id="_482192408" class="st1" d="M-445.8,288l1.5-0.6c0.1-0.1,0.2-0.2,0.2-0.3v-0.4c0-0.2-0.2-0.3-0.3-0.3h-1.7
			C-446.2,286.3-445.8,288-445.8,288z"/>
	</g>
	<path id="_482192480" class="st1" d="M-446.7,285.6c-2.1-0.3-4.2-0.3-6.2,0c-0.6,0.1-1,0.5-1.2,1.1c-0.3-0.2-0.6-0.3-0.9-0.3
		c-0.3,0-0.7,0.1-0.9,0.3c-0.1-0.6-0.6-1-1.2-1.1c-2.1-0.3-4.2-0.3-6.2,0c-0.7,0.1-1.3,0.8-1.2,1.5c0,0.4,0.1,0.8,0.1,1.2
		c0.1,0.8,0.2,1.5,0.3,2.4c0.1,0.9,0.8,1.5,1.7,1.5h4.4c0,0,0,0,0,0c0.9,0,1.6-0.7,1.7-1.5c0.1-0.9,0.2-1.6,0.3-2.4
		c0-0.1,0-0.2,0-0.4c0,0,0,0,0,0c0.1-0.4,0.5-0.8,1-0.8c0.5,0,0.9,0.3,1,0.8c0,0,0,0,0,0c0,0.1,0,0.2,0,0.4c0.1,0.8,0.2,1.5,0.3,2.4
		c0.1,0.9,0.8,1.5,1.7,1.5h4.4c0,0,0,0,0,0c0.9,0,1.6-0.7,1.7-1.5c0.1-0.9,0.2-1.6,0.3-2.4c0-0.4,0.1-0.8,0.1-1.2
		C-445.4,286.4-446,285.7-446.7,285.6z M-457,290.6c-0.1,0.5-0.5,0.9-1,0.9h-4.4c-0.5,0-1-0.4-1-0.9c-0.1-0.9-0.2-1.6-0.3-2.4
		c0-0.4-0.1-0.8-0.1-1.2c0-0.4,0.2-0.7,0.6-0.8c1-0.1,2-0.2,3-0.2c1,0,2,0.1,3,0.2c0.4,0,0.6,0.4,0.6,0.8c0,0.4-0.1,0.8-0.1,1.2
		C-456.8,289-456.9,289.7-457,290.6z M-446.2,287.1c0,0.4-0.1,0.8-0.1,1.2c-0.1,0.8-0.2,1.5-0.3,2.4c-0.1,0.5-0.5,0.9-1,0.9h-4.4
		c-0.5,0-1-0.4-1-0.9c-0.1-0.9-0.2-1.6-0.3-2.4c0-0.4-0.1-0.8-0.1-1.2c0-0.4,0.2-0.7,0.6-0.8c1-0.1,2-0.2,3-0.2c1,0,2,0.1,3,0.2
		C-446.4,286.3-446.1,286.7-446.2,287.1z"/>
	<path id="_482192384" class="st0" d="M-444.6,280.6c0,0.9-0.1,1.8-0.4,2.7c-0.2,0.6-0.5,1.9-1.1,2.2c-0.3-0.6-0.1-1.3-0.1-2
		c-0.1-0.6-0.1-1.4-0.4-2c-0.6-1.2-1.9-2.1-1.4-3.6c0.4-1.1,1.6-0.9,2.3-0.2C-444.8,278.4-444.6,279.6-444.6,280.6L-444.6,280.6z"/>
	<path id="_482192600" class="st0" d="M-444.8,278.9c-0.2-0.4-0.4-0.8-0.7-1.2c-0.2-0.2-0.4-0.3-0.7-0.4c-0.7,0.4-1.3,1.3-1.6,2.2
		c0.3,0.7,0.9,1.3,1.3,2c0.3,0.6,0.4,1.3,0.4,2c0,0.6-0.2,1.4,0.1,1.9c0.7-1,0.5-3,0.3-3.8c-0.2-0.6-0.4-1.1-0.2-1.7
		C-445.7,279.5-445.3,279.1-444.8,278.9z"/>
	<path id="_482192288" class="st0" d="M-461.2,274.1c-0.5,0.8-0.6,1.8-0.3,2.7c0.4,0.9,1.3,1.1,2.1,1.5c0.9,0.4,1.7,0.8,2.4,1.4
		c0.8,0.6,1.6,1.3,2.6,1.6c1.5,0.4,3.1,0.4,4.6,0.1c3.8-0.8,6.4-6.5,4-9.9c0.3,1.9-0.9,2.2-2.2,3c1.3-1.5,0.3-4.4-1.6-5.3
		c2.3,5.2-3.7,4.2-6.7,3.8C-457.8,272.9-460.1,272.4-461.2,274.1z"/>
	<path id="_482192576" class="st0" d="M-463.3,275.2c0.5-0.1,1,0.1,1.5,0.3c0.5,0.3,1.1,0.5,1.6,0.9c0.3,0.3,1,1.1,0.9,1.5
		c-0.1,0.3-0.4,0.2-0.7,0.2c-0.6,0-1.2,0-1.7,0.2c-1.7,0.8-2.1,3-2.4,4.7c-0.1,0.4,0,0.9-0.3,1.2c-0.7-0.5-0.7-2.2-0.9-3
		c-0.3-1.7-0.4-4,0.8-5.4C-464.2,275.4-463.7,275.2-463.3,275.2z"/>
	<path id="_482192216" class="st0" d="M-445.7,271.6c0,0.2,0,0.5,0,0.6c0.2,0.7,0.3,1.3,0.2,2c-0.1,0.9-0.4,1.9-0.9,2.7
		c-0.6,1.1-1.4,2.3-2.6,2.8c-1.4,0.6-2.5,0.8-4,0.5c-1.4-0.3-2.5-1-3.8-1.6c-1.3-0.6-2.5-1.6-3.9-1.5c-0.2,0-0.4,0-0.6,0.1
		c0.5,0.5,1.2,0.7,1.9,1c0.9,0.4,1.7,0.8,2.4,1.4c0.8,0.6,1.6,1.3,2.6,1.6c1.5,0.4,3.1,0.4,4.6,0.1
		C-445.9,280.7-442.7,274.6-445.7,271.6z"/>
	<path id="_469877552" class="st0" d="M-460.6,277.1c-1.2,0.1-2.6,1-3.1,2c-0.7,1.5-0.5,3.1-0.5,4.7c0.1-0.3,0.1-0.6,0.1-0.9
		c0.3-1.6,0.7-3.9,2.4-4.7c0.5-0.2,1.1-0.3,1.7-0.2c0.3,0,0.6,0.2,0.7-0.2c0-0.2,0-0.4-0.2-0.7
		C-459.9,277.1-460.2,277.1-460.6,277.1z"/>
	<path id="_470839272" class="st2" d="M-462.5,276.6c0.7,0,1-0.6,0.3-0.9c-0.8-0.3-1.7,0.1-2.1,0.8c-0.4,0.7-0.3,1.2-0.4,1.9
		C-464.5,277.1-463.5,276.6-462.5,276.6z"/>
	<path id="_470839656" class="st2" d="M-451.4,277.3c-1.5,0.7-2.6,0.2-4-0.4c-0.6-0.3-1.2-0.5-1.8-0.7c-1.2-0.5-2.4-1.1-3.7-0.5
		c0-0.7,0.4-1.4,1-1.9c0.5-0.3,1.1-0.5,1.7-0.5c1,0,2,0.8,2.9,0.4c-0.5,0.4-1,0.7-1.7,0.6c-0.5-0.1-1.4-0.3-1.7,0.2
		c1.2-0.6,3.1,1.1,4.1,1.5c1.5,0.6,3.2,1.2,4.7,0C-450.5,276.5-450.7,276.9-451.4,277.3z"/>
</g>
</svg>
